<svg width="20" height="20" viewBox="0 0 20 20" fill="none" xmlns="http://www.w3.org/2000/svg">
<path fill-rule="evenodd" clip-rule="evenodd" d="M7.95465 3.75638C1.75253 1.25893 1.78192 5.54049 2.57103 7.99345C1.53697 9.59884 2.13992 11.3377 2.57103 12.0073C1.01994 17.7155 5.51344 17.2098 7.95465 16.2436C9.3324 16.9569 11.2558 16.541 12.0464 16.2436C18.076 18.7411 18.1476 14.4595 17.4301 12.0073C18.4626 10.2232 17.8597 8.58816 17.4301 7.99345C18.9804 2.1065 14.3429 2.71604 11.8301 3.7556C10.4524 3.04305 8.67216 3.45903 7.95465 3.75638ZM8.96234 8.54289C8.97213 9.5286 8.52444 10.352 8.03756 10.4277C7.54389 10.5104 7.37431 9.68625 7.37732 8.54289C7.37355 7.39797 7.54389 6.57459 8.03756 6.65732C8.52444 6.7338 8.97213 7.55718 8.96234 8.54211M11.3757 6.65654C11.8686 6.57381 12.0389 7.39797 12.0351 8.54133C12.0389 9.68625 11.8686 10.5096 11.3757 10.4269C10.8888 10.3512 10.4411 9.52782 10.4501 8.54211C10.4411 7.5564 10.8888 6.73302 11.3757 6.65654Z" fill="currentColor"/>
</svg>
